<?xml version="1.0" encoding="UTF-8" standalone="no"?>
<!-- Created with Inkscape (http://www.inkscape.org/) -->

<svg
   xmlns:dc="http://purl.org/dc/elements/1.1/"
   xmlns:cc="http://creativecommons.org/ns#"
   xmlns:rdf="http://www.w3.org/1999/02/22-rdf-syntax-ns#"
   xmlns:svg="http://www.w3.org/2000/svg"
   xmlns="http://www.w3.org/2000/svg"
   xmlns:sodipodi="http://sodipodi.sourceforge.net/DTD/sodipodi-0.dtd"
   xmlns:inkscape="http://www.inkscape.org/namespaces/inkscape"
   version="1.1"
   id="svg7116"
   xml:space="preserve"
   width="800"
   height="800"
   viewBox="0 0 800 800"
   sodipodi:docname="shark-graphics-4-pdv.svg"
   inkscape:version="0.92.4 (5da689c313, 2019-01-14)"><metadata
     id="metadata7122"><rdf:RDF><cc:Work
         rdf:about=""><dc:format>image/svg+xml</dc:format><dc:type
           rdf:resource="http://purl.org/dc/dcmitype/StillImage" /><dc:title></dc:title></cc:Work></rdf:RDF></metadata><defs
     id="defs7120"><clipPath
       clipPathUnits="userSpaceOnUse"
       id="clipPath7132"><path
         d="M 0,600 H 600 V 0 H 0 Z"
         id="path7130"
         inkscape:connector-curvature="0" /></clipPath></defs><sodipodi:namedview
     pagecolor="#ffffff"
     bordercolor="#666666"
     borderopacity="1"
     objecttolerance="10"
     gridtolerance="10"
     guidetolerance="10"
     inkscape:pageopacity="0"
     inkscape:pageshadow="2"
     inkscape:window-width="1920"
     inkscape:window-height="1018"
     id="namedview7118"
     showgrid="false"
     inkscape:zoom="0.79509524"
     inkscape:cx="522.0339"
     inkscape:cy="357.62712"
     inkscape:window-x="-8"
     inkscape:window-y="-8"
     inkscape:window-maximized="1"
     inkscape:current-layer="g7124" /><g
     id="g7124"
     inkscape:groupmode="layer"
     inkscape:label="shark-graphics-4-pdv"
     transform="matrix(1.3333333,0,0,-1.3333333,0,800)"><g
       id="g7126"><g
         id="g7128"
         clip-path="url(#clipPath7132)"><path
           d="m 260.153,433.972 c 0,1.757 1.422,3.182 3.182,3.182 1.76,0 3.183,-1.425 3.183,-3.182 0,-1.758 -1.423,-3.183 -3.183,-3.183 -1.76,0 -3.182,1.425 -3.182,3.183 m 16.865,-32.141 c -1.716,0 -3.105,1.389 -3.105,3.103 0,1.714 1.389,3.106 3.105,3.106 1.716,0 3.104,-1.392 3.104,-3.106 0,-1.714 -1.388,-3.103 -3.104,-3.103 m -34.616,18.218 c 0,2.417 1.958,4.376 4.376,4.376 2.417,0 4.375,-1.959 4.375,-4.376 0,-2.416 -1.958,-4.375 -4.375,-4.375 -2.418,0 -4.376,1.959 -4.376,4.375 m -43.081,-68.796 c -1.82,0 -3.294,1.477 -3.294,3.296 0,1.819 1.474,3.296 3.294,3.296 1.823,0 3.294,-1.477 3.294,-3.296 0,-1.819 -1.471,-3.296 -3.294,-3.296 m -24.463,-30.117 c 0,1.062 0.861,1.922 1.924,1.922 1.063,0 1.925,-0.86 1.925,-1.922 0,-1.061 -0.862,-1.922 -1.925,-1.922 -1.063,0 -1.924,0.861 -1.924,1.922 m -14.139,25.458 c 0,2.573 2.085,4.659 4.658,4.659 2.573,0 4.658,-2.086 4.658,-4.659 0,-2.573 -2.085,-4.66 -4.658,-4.66 -2.573,0 -4.658,2.087 -4.658,4.66 m 25.078,-10.077 c -1.464,0 -2.65,1.187 -2.65,2.651 0,1.464 1.186,2.651 2.65,2.651 1.464,0 2.651,-1.187 2.651,-2.651 0,-1.464 -1.187,-2.651 -2.651,-2.651 m 232.829,-68.019 c -1.318,0 -2.388,1.068 -2.388,2.387 0,1.318 1.07,2.386 2.388,2.386 1.316,0 2.386,-1.068 2.386,-2.386 0,-1.319 -1.07,-2.387 -2.386,-2.387 m -26.651,-36.992 c -2.197,0 -3.979,1.779 -3.979,3.976 0,2.198 1.782,3.979 3.979,3.979 2.196,0 3.977,-1.781 3.977,-3.979 0,-2.197 -1.781,-3.976 -3.977,-3.976 m -25.06,-6.764 c -1.76,0 -3.182,1.426 -3.182,3.184 0,1.756 1.422,3.181 3.182,3.181 1.76,0 3.182,-1.425 3.182,-3.181 0,-1.758 -1.422,-3.184 -3.182,-3.184 m -5.569,27.846 c -1.318,0 -2.387,1.068 -2.387,2.387 0,1.316 1.069,2.386 2.387,2.386 1.317,0 2.387,-1.07 2.387,-2.386 0,-1.319 -1.07,-2.387 -2.387,-2.387 m -8.354,-52.01 c -1.482,0 -2.684,1.203 -2.684,2.686 0,1.482 1.202,2.685 2.684,2.685 1.483,0 2.686,-1.203 2.686,-2.685 0,-1.483 -1.203,-2.686 -2.686,-2.686 m -24.528,-6.861 c -2.636,0 -4.773,2.137 -4.773,4.773 0,2.637 2.137,4.774 4.773,4.774 2.636,0 4.773,-2.137 4.773,-4.774 0,-2.636 -2.137,-4.773 -4.773,-4.773 m -7.955,43.756 c 0,2.197 1.781,3.976 3.977,3.976 2.199,0 3.978,-1.779 3.978,-3.976 0,-2.198 -1.779,-3.979 -3.978,-3.979 -2.196,0 -3.977,1.781 -3.977,3.979 m -19.625,-3.979 c -1.096,0 -1.988,0.891 -1.988,1.988 0,1.1 0.892,1.991 1.988,1.991 1.097,0 1.988,-0.891 1.988,-1.991 0,-1.097 -0.891,-1.988 -1.988,-1.988 M 288.688,206.66 c -2.08,0 -3.765,1.686 -3.765,3.764 0,2.078 1.685,3.764 3.765,3.764 2.079,0 3.762,-1.686 3.762,-3.764 0,-2.078 -1.683,-3.764 -3.762,-3.764 m -2.919,-29.57 c -3.692,0 -6.682,2.992 -6.682,6.683 0,3.69 2.99,6.682 6.682,6.682 3.693,0 6.681,-2.992 6.681,-6.682 0,-3.691 -2.988,-6.683 -6.681,-6.683 m -30.629,26.969 c -1.758,0 -3.182,1.425 -3.182,3.181 0,1.758 1.424,3.184 3.182,3.184 1.76,0 3.182,-1.426 3.182,-3.184 0,-1.756 -1.422,-3.181 -3.182,-3.181 m 132.059,78.724 13.132,1.229 c 0,0 1.986,-15.713 0.264,-29.037 -0.899,1.175 -32.366,16.062 -42.083,20.642 -3.696,-0.861 -7.353,-1.689 -10.953,-2.478 -12.868,-2.817 -22.636,-4.793 -37.589,-8.432 l 2.052,-12.119 -26.49,5.885 c -8.341,-2.209 -18.066,-4.852 -29.625,-8.061 l -23.043,-19.703 5.315,14.738 c -9.629,-2.717 -20.317,-5.759 -32.274,-9.193 l 17.811,-40.547 c 0,0 -25.455,11.93 -34.473,20.418 -2.17,2.041 -6.97,3.268 -13.312,3.908 26.813,-35.072 69.065,-57.74 116.519,-57.74 77.207,0 140.662,59.988 146.211,135.805 -15.839,-5.305 -33.584,-10.561 -51.462,-15.315 M 183.675,267.121 c -2.079,0 -3.764,1.686 -3.764,3.764 0,2.078 1.685,3.763 3.764,3.763 2.079,0 3.763,-1.685 3.763,-3.763 0,-2.078 -1.684,-3.764 -3.763,-3.764 m -21.613,13.012 c -1.483,0 -2.686,1.203 -2.686,2.685 0,1.483 1.203,2.686 2.686,2.686 1.482,0 2.686,-1.203 2.686,-2.686 0,-1.482 -1.204,-2.685 -2.686,-2.685 m 44.55,5.371 c 1.483,0 2.686,-1.203 2.686,-2.686 0,-1.482 -1.203,-2.685 -2.686,-2.685 -1.482,0 -2.685,1.203 -2.685,2.685 0,1.483 1.203,2.686 2.685,2.686 m 41.368,89.1 c 1.482,0 2.685,-1.203 2.685,-2.686 0,-1.481 -1.203,-2.683 -2.685,-2.683 -1.481,0 -2.684,1.202 -2.684,2.683 0,1.483 1.203,2.686 2.684,2.686 m 6.285,-33.711 c 0,-2.079 -1.684,-3.764 -3.764,-3.764 -2.08,0 -3.764,1.685 -3.764,3.764 0,2.079 1.684,3.764 3.764,3.764 2.08,0 3.764,-1.685 3.764,-3.764 m 22.355,17.801 c 1.483,0 2.686,-1.203 2.686,-2.686 0,-1.482 -1.203,-2.683 -2.686,-2.683 -1.482,0 -2.684,1.201 -2.684,2.683 0,1.483 1.202,2.686 2.684,2.686 m 50.915,31.821 c 1.483,0 2.686,-1.202 2.686,-2.684 0,-1.483 -1.203,-2.686 -2.686,-2.686 -1.482,0 -2.685,1.203 -2.685,2.686 0,1.482 1.203,2.684 2.685,2.684 m 5.171,22.773 c 1.318,0 2.388,-1.07 2.388,-2.387 0,-1.318 -1.07,-2.387 -2.388,-2.387 -1.316,0 -2.386,1.069 -2.386,2.387 0,1.317 1.07,2.387 2.386,2.387 M 351.8,394.196 c 1.317,0 2.387,-1.071 2.387,-2.388 0,-1.317 -1.07,-2.387 -2.387,-2.387 -1.318,0 -2.388,1.07 -2.388,2.387 0,1.317 1.07,2.388 2.388,2.388 M 195.067,242.424 c 6.696,9.142 17.231,23.717 31.858,40.51 -1.152,6.677 -8.246,16.192 -8.246,16.192 l 28.705,7.161 c 12.388,12.553 27.754,25.18 44.444,37.57 1.208,8.5 -0.606,20.808 -4.376,38.536 l 42.874,-11.609 c 22.27,12.271 48.044,22.562 76.64,29.55 -0.695,0.868 -1.398,1.729 -2.112,2.581 -17.376,-5.797 -33.902,-7.045 -47.883,2.019 -9.348,4.774 -6.763,19.491 -26.915,26.85 -21.303,7.16 -41.105,5.17 -57.016,-10.74 15.911,4.972 31.026,-0.995 37.391,-10.541 11.666,-17.303 -10.144,-21.082 -28.641,-19.094 -35.003,3.183 -67.023,26.055 -95.465,0 -4.773,-6.364 -8.353,-17.5 -1.989,-27.047 0,3.181 2.587,10.938 5.173,14.319 16.904,14.319 40.373,2.785 45.244,-16.516 6.363,-44.551 -32.517,-63.039 -77.066,-63.039 -3.81,0 -7.666,0.201 -11.547,0.56 1.332,-21.366 7.258,-41.502 16.803,-59.436 16.377,2.717 28.916,2.336 32.124,2.174"
           style="fill:#29abe2;fill-opacity:1;fill-rule:nonzero;stroke:none"
           id="path7134"
           inkscape:connector-curvature="0" /><path
           d="M 531.99,385.045 C 470.177,383.532 420.949,368.04 383.164,348.716 l 4.733,8.486 h -10e-4 l -4.732,-8.486 -12.868,-23.071 5.65,19.258 c -1.951,-1.063 -3.865,-2.137 -5.75,-3.215 l -11.237,-21.384 5.665,18.117 c -2.59,-1.555 -5.11,-3.119 -7.569,-4.694 l -8.439,-16.303 3.588,13.13 c -46.797,-31.256 -68.288,-64.31 -68.288,-64.31 0,0 166.531,42.429 197.558,57.545 -4.765,6.151 -66.031,9.149 -71.997,12.729 0.26,0.299 0.532,0.584 0.8,0.875 l -0.53,-0.025 0.875,0.404 c 28.205,29.854 96.707,18.633 96.707,18.633 0,0 11.932,9.15 24.661,28.64 m -29.952,-37.023 c -6.975,2.391 -14.967,3.601 -23.804,3.601 -19.96,0 -40.038,-6.183 -51.084,-10.25 l 10.427,0.491 6.623,4.685 4.565,-4.191 8.429,6.272 4.729,-6.957 10.652,8.718 2.194,-8.398 10.96,7.924 3.054,-10.041 c 2.399,1.291 7.207,4.017 13.255,8.146 m -63.377,-49.924 c -15.838,-5.305 -33.584,-10.561 -51.462,-15.315 -5.921,-1.574 -11.856,-3.097 -17.742,-4.545 l 27.691,2.59 c 0,0 3.581,-10.738 3.447,-25.853 -0.898,1.173 -32.366,16.062 -42.084,20.642 -3.695,-0.861 -7.352,-1.689 -10.952,-2.478 -12.868,-2.817 -22.636,-4.793 -37.589,-8.432 -3.863,-0.939 -8.067,-1.986 -12.766,-3.191 l 9.413,1.015 5.405,-9.943 -26.49,5.885 c -8.341,-2.209 -18.066,-4.852 -29.625,-8.061 l -23.042,-19.703 5.314,14.738 c -9.629,-2.717 -20.316,-5.759 -32.273,-9.193 -1.344,-0.387 -2.69,-0.774 -4.067,-1.17 l 21.877,-39.377 c 0,0 -25.455,11.93 -34.473,20.418 -2.17,2.041 -6.97,3.268 -13.312,3.908 26.813,-35.072 69.065,-57.74 116.519,-57.74 77.207,0 140.663,59.988 146.211,135.805 m -185.775,-34.903 71.6,54.229 c 0,0 -4.164,-1.499 -10.215,-3.689 L 263.335,275.5 c 0,0 3.508,15.131 5.756,21.465 -0.367,-0.164 -0.567,-0.27 -0.567,-0.307 0,-0.629 -15.638,-33.463 -15.638,-33.463 m 164.943,128.614 c 0,-2.529 2.316,-4.576 5.172,-4.576 2.855,0 5.171,2.047 5.171,4.576 0,2.525 -2.316,4.573 -5.171,4.573 -2.856,0 -5.172,-2.048 -5.172,-4.573 m 122.779,0.131 c 0,0 -2.675,-14.422 -19.782,-32.226 -4.134,-4.302 -9.1,-8.8 -15.088,-13.342 -0.106,0.037 -0.23,0.072 -0.339,0.109 -2.632,-1.84 -5.053,-3.432 -7.192,-4.774 -5.759,-3.616 -9.471,-5.452 -9.687,-5.558 l -1.678,-0.82 -2.206,7.244 -0.655,2.154 -2.76,-1.996 -8.357,-6.041 -1.666,6.377 -0.448,1.719 -2.036,-1.666 -7.468,-6.112 -4.213,6.199 c -0.6,-0.003 -1.206,-0.007 -1.813,-0.013 l -6.669,-4.961 -4.611,4.234 -5.284,-3.738 -0.821,-0.039 c 30.929,-1.424 55.572,-11.453 55.572,-11.453 l -1.672,-5.012 -0.451,-1.352 c -4.491,-3.278 -11.554,-6.916 -20.417,-10.724 0.003,-0.416 0.016,-0.832 0.016,-1.25 0,-98.385 -80.046,-178.428 -178.433,-178.428 -65.837,0 -123.454,35.845 -154.375,89.043 -13.285,-1.037 -26.139,-2.627 -34.486,-3.92 1.842,1.246 3.703,2.424 5.575,3.543 39.113,23.377 83.526,20.058 83.526,20.058 0.727,0.981 1.526,2.067 2.377,3.229 6.696,9.142 17.231,23.717 31.86,40.51 -1.154,6.677 -8.248,16.192 -8.248,16.192 l 26.545,3.538 c 13.139,13.315 28.602,27.153 46.468,40.259 0.053,0.304 0.092,0.621 0.136,0.935 1.208,8.5 -0.606,20.807 -4.376,38.535 l 41.893,-15.386 c 38.862,21.415 86.188,37.412 142.781,39.717 35.321,-2.122 68.482,-14.784 68.482,-14.784 M 131.593,231.719 c -11.259,23.369 -17.572,49.551 -17.572,77.18 0,98.388 80.042,178.432 178.429,178.432 62.218,0 117.09,-32.017 149.034,-80.432 -11.905,-1.64 -23.424,-3.852 -34.519,-6.564 -0.694,0.868 -1.397,1.728 -2.111,2.58 -26.915,32.126 -67.312,52.594 -112.404,52.594 -80.838,0 -146.607,-65.768 -146.607,-146.61 0,-3.094 0.107,-6.164 0.297,-9.213 1.332,-21.366 7.258,-41.502 16.803,-59.436 -9.515,-1.58 -20.325,-4.207 -31.35,-8.531"
           style="fill:#000000;fill-opacity:1;fill-rule:nonzero;stroke:none"
           id="path7136"
           inkscape:connector-curvature="0" /></g></g></g></svg>